
nColumns=19
nRows=30
DataType=double
version=3
OpenSimVersion=4.4-2022-10-11-798caa840
endheader
time	ground_force_calcn_r_vx	ground_force_calcn_r_vy	ground_force_calcn_r_vz	ground_force_calcn_r_px	ground_force_calcn_r_py	ground_force_calcn_r_pz	ground_force_calcn_r_mx	ground_force_calcn_r_my	ground_force_calcn_r_mz	ground_force_calcn_l_vx	ground_force_calcn_l_vy	ground_force_calcn_l_vz	ground_force_calcn_l_px	ground_force_calcn_l_py	ground_force_calcn_l_pz	ground_force_calcn_l_mx	ground_force_calcn_l_my	ground_force_calcn_l_mz
2.25	15.8224	519.4930000000001	-56.5996	-0.28937	0	-0.343838	-0.07722320000000001	-2.53545	0.276242	17.3999	211.285	15.9443	-0.332504	0	-0.885392	0.158596	1.92581	0.145328
2.26	14.0906	536.946	-59.4233	-0.288086	0	-0.343465	-0.0711204	-2.71016	0.299931	17.0551	202.001	13.1037	-0.333663	0	-0.884006	0.16107	1.90772	0.123753
2.27	12.376	552.551	-61.8006	-0.286729	0	-0.343139	-0.0643989	-2.87522	0.321581	16.6466	194.121	10.5601	-0.33445	0	-0.882704	0.160689	1.87384	0.101937
2.28	10.7097	566.39	-63.7011	-0.28531	0	-0.342866	-0.0572232	-3.02628	0.340362	16.2178	187.675	8.32057	-0.334884	0	-0.881511	0.157818	1.8263	0.0809686
2.29	9.120950000000001	578.598	-65.1277	-0.283839	0	-0.34265	-0.0498033	-3.15933	0.355618	15.8036	182.652	6.39395	-0.334997	0	-0.880454	0.152926	1.76746	0.0618722
2.3	7.62904	589.35	-66.11	-0.282322	0	-0.342489	-0.042341	-3.27088	0.366909	15.436	178.973	4.77916	-0.334828	0	-0.879549	0.146597	1.69973	0.0453882
2.31	6.2393	598.841	-66.6949	-0.280764	0	-0.342381	-0.0349901	-3.35831	0.374026	15.1503	176.496	3.45504	-0.334429	0	-0.8788010000000001	0.139519	1.62535	0.0318174
2.32	4.9374	607.279	-66.9349	-0.279167	0	-0.342323	-0.0278077	-3.42023	0.376981	14.984	175.034	2.3797	-0.33386	0	-0.8781949999999999	0.132394	1.54655	0.0210264
2.33	3.68872	614.8920000000001	-66.8779	-0.277528	0	-0.34231	-0.0207373	-3.45681	0.375975	14.9657	174.394	1.5027	-0.333173	0	-0.877712	0.125757	1.46543	0.0126272
2.34	2.44349	621.9349999999999	-66.55970000000001	-0.275848	0	-0.342336	-0.0136335	-3.47011	0.371372	15.1066	174.406	0.783083	-0.332409	0	-0.877327	0.119865	1.38384	0.00621344
2.35	1.14604	628.693	-66.0072	-0.27412	0	-0.342397	-0.00631503	-3.46429	0.36372	15.3993	174.936	0.19744	-0.331592	0	-0.877028	0.114748	1.30353	0.00147122
2.36	-0.255822	635.454	-65.24760000000001	-0.272346	0	-0.342487	0.0013871	-3.44552	0.353781	15.8256	175.877	-0.265296	-0.33073	0	-0.8768049999999999	0.110332	1.22617	-0.00184958
2.37	-1.80288	642.478	-64.3129	-0.270526	0	-0.342595	0.00960108	-3.42146	0.342492	16.362	177.156	-0.610074	-0.329831	0	-0.876651	0.106501	1.15311	-0.00397099
2.38	-3.52333	650.001	-63.2384	-0.268667	0	-0.342714	0.0184334	-3.40068	0.330851	16.9788	178.732	-0.835775	-0.328886	0	-0.876568	0.103087	1.08518	-0.00507445
2.39	-5.43403	658.251	-62.0621	-0.266779	0	-0.34283	0.0280032	-3.39216	0.319824	17.6383	180.587	-0.934205	-0.327887	0	-0.876559	0.09990540000000001	1.02286	-0.00529145
2.4	-7.54053	667.4589999999999	-60.8256	-0.264875	0	-0.342933	0.0384643	-3.40471	0.310272	18.2964	182.702	-0.892694	-0.326823	0	-0.876627	0.0967913	0.966526	-0.00472251
2.41	-9.839090000000001	677.841	-59.5757	-0.262973	0	-0.34301	0.0500235	-3.44626	0.302893	18.9037	185.072	-0.697854	-0.325681	0	-0.876777	0.09359480000000001	0.916318	-0.00345518
2.42	-12.3117	689.5700000000001	-58.362	-0.261094	0	-0.34305	0.0629084	-3.52345	0.298209	19.4085	187.714	-0.337082	-0.324453	0	-0.877013	0.0901692	0.872093	-0.00156604
2.43	-14.917	702.739	-57.2359	-0.259264	0	-0.343041	0.0772911	-3.64118	0.296563	19.7618	190.668	0.200622	-0.323132	0	-0.877339	0.08638270000000001	0.833445	0.000876959
2.44	-17.5885	717.34	-56.2487	-0.257509	0	-0.342975	0.09322370000000001	-3.8021	0.298134	19.9219	193.973	0.92222	-0.321718	0	-0.877755	0.0821437	0.799803	0.00380257
2.45	-20.2418	733.253	-55.4475	-0.255856	0	-0.342844	0.110594	-4.00623	0.302945	19.8596	197.656	1.82721	-0.320216	0	-0.878251	0.07739260000000001	0.770261	0.00712061
2.46	-22.7878	750.248	-54.8722	-0.254327	0	-0.342645	0.129108	-4.25065	0.310888	19.563	201.728	2.90411	-0.318646	0	-0.878812	0.07210759999999999	0.743554	0.0107043
2.47	-25.1431	767.995	-54.5533	-0.25294	0	-0.342377	0.148294	-4.52962	0.321754	19.0414	206.19	4.12817	-0.317042	0	-0.879412	0.06632730000000001	0.718226	0.0143798
2.48	-27.2322	786.1130000000001	-54.5095	-0.251707	0	-0.342044	0.16749	-4.83494	0.335257	18.3248	211.018	5.46317	-0.315445	0	-0.880023	0.060163	0.692804	0.0179364
2.49	-28.9859	804.218	-54.7466	-0.250637	0	-0.341653	0.185852	-5.1565	0.351025	17.458	216.164	6.86706	-0.313898	0	-0.880614	0.053787	0.665986	0.021157
2.5	-30.3431	821.9640000000001	-55.2546	-0.249738	0	-0.341215	0.202419	-5.48333	0.368604	16.4932	221.539	8.296010000000001	-0.312437	0	-0.881155	0.0473974	0.636649	0.0238407
2.51	-31.2563	839.057	-56.0046	-0.249016	0	-0.340745	0.216223	-5.80437	0.387425	15.4865	227.013	9.70111	-0.311088	0	-0.88162	0.0412009	0.603955	0.0258093
2.52	-31.6985	855.228	-56.9515	-0.248471	0	-0.340259	0.22643	-6.10912	0.40682	14.4946	232.416	11.0246	-0.309867	0	-0.881987	0.0353835	0.567361	0.0269126
2.53	-31.6743	870.206	-58.0428	-0.248102	0	-0.339772	0.232505	-6.38773	0.426062	13.5691	237.557	12.2021	-0.308777	0	-0.882239	0.030075	0.526528	0.027045
2.54	-31.2228	883.706	-59.2255	-0.247899	0	-0.339299	0.234287	-6.63107	0.444411	12.7515	242.245	13.1713	-0.307815	0	-0.88236	0.025332	0.48124	0.0261659
